<?xml version="1.0" standalone="no"?><!DOCTYPE svg PUBLIC "-//W3C//DTD SVG 1.1//EN" "http://www.w3.org/Graphics/SVG/1.1/DTD/svg11.dtd"><svg t="1591168355177" class="icon" viewBox="0 0 1024 1024" version="1.1" xmlns="http://www.w3.org/2000/svg" p-id="1175" xmlns:xlink="http://www.w3.org/1999/xlink" width="200" height="200"><defs><style type="text/css"></style></defs><path d="M512 955.733333c-3.413333 0-10.24 0-13.653333-3.413333l-477.866667-477.866667c-6.826667-6.826667-6.826667-17.066667 0-23.893333s17.066667-6.826667 23.893333 0L512 914.773333l464.213333-464.213333c6.826667-6.826667 17.066667-6.826667 23.893334 0s6.826667 17.066667 0 23.893333l-477.866667 477.866667c0 3.413333-6.826667 3.413333-10.24 3.413333z" fill="" p-id="1176"></path><path d="M512 580.266667c-3.413333 0-10.24 0-13.653333-3.413334l-477.866667-477.866666c-6.826667-6.826667-6.826667-17.066667 0-23.893334s17.066667-6.826667 23.893333 0L512 539.306667 976.213333 71.68c6.826667-6.826667 17.066667-6.826667 23.893334 0s6.826667 17.066667 0 23.893333l-477.866667 477.866667c0 6.826667-6.826667 6.826667-10.24 6.826667z" fill="" p-id="1177"></path></svg>